<svg xmlns="http://www.w3.org/2000/svg" xmlns:xlink="http://www.w3.org/1999/xlink" contentStyleType="text/css" height="1017px" preserveAspectRatio="none" style="width:1676px;height:1017px;background:#FFFFFF;" version="1.1" viewBox="0 0 1676 1017" width="1676px" zoomAndPan="magnify"><defs/><g><!--class Persona--><g id="elem_Persona"><rect codeLine="3" fill="#F1F1F1" height="196.9688" id="Persona" rx="2.5" ry="2.5" style="stroke:#181818;stroke-width:0.5;" width="250.5059" x="293.5" y="466"/><ellipse cx="388.4307" cy="482" fill="#ADD1B2" rx="11" ry="11" style="stroke:#181818;stroke-width:1.0;"/><path d="M391.1963,477.875 Q391.3525,477.6563 391.54,477.5469 Q391.7275,477.4375 391.9463,477.4375 Q392.3213,477.4375 392.5557,477.7031 Q392.79,477.9531 392.79,478.5625 L392.79,480.0156 Q392.79,480.625 392.5557,480.8906 Q392.3213,481.1563 391.9463,481.1563 Q391.6025,481.1563 391.3994,480.9531 Q391.1963,480.7656 391.0869,480.25 Q391.04,479.8906 390.8525,479.7031 Q390.5244,479.3281 389.915,479.1094 Q389.3057,478.8906 388.6807,478.8906 Q387.915,478.8906 387.2744,479.2188 Q386.6494,479.5469 386.1494,480.2969 Q385.665,481.0469 385.665,482.0781 L385.665,483.1719 Q385.665,484.4063 386.5557,485.2344 Q387.4463,486.0469 389.04,486.0469 Q389.9775,486.0469 390.6338,485.7969 Q391.0244,485.6406 391.4463,485.2031 Q391.7119,484.9375 391.8525,484.8594 Q392.0088,484.7813 392.2119,484.7813 Q392.54,484.7813 392.79,485.0469 Q393.0557,485.2969 393.0557,485.6406 Q393.0557,485.9844 392.7119,486.3906 Q392.2119,486.9688 391.415,487.2969 Q390.3369,487.75 389.04,487.75 Q387.5244,487.75 386.3213,487.125 Q385.3369,486.625 384.6494,485.5625 Q383.9619,484.4844 383.9619,483.2031 L383.9619,482.0469 Q383.9619,480.7188 384.5713,479.5781 Q385.1963,478.4219 386.29,477.8125 Q387.3838,477.1875 388.6182,477.1875 Q389.3525,477.1875 389.9932,477.3594 Q390.6494,477.5156 391.1963,477.875 Z " fill="#000000"/><text fill="#000000" font-family="sans-serif" font-size="14" lengthAdjust="spacing" textLength="52.1445" x="408.9307" y="487.7969">Persona</text><line style="stroke:#181818;stroke-width:0.5;" x1="294.5" x2="543.0059" y1="498" y2="498"/><text fill="#000000" font-family="sans-serif" font-size="14" lengthAdjust="spacing" textLength="96.4824" x="299.5" y="517.1074">-String: nombre</text><text fill="#000000" font-family="sans-serif" font-size="14" lengthAdjust="spacing" textLength="104.2754" x="299.5" y="535.7285">-String: apellidos</text><text fill="#000000" font-family="sans-serif" font-size="14" lengthAdjust="spacing" textLength="73.124" x="299.5" y="554.3496">-String: DNI</text><text fill="#000000" font-family="sans-serif" font-size="14" lengthAdjust="spacing" textLength="218.6885" x="299.5" y="572.9707">-LocalDate: fechaCaducidadCarnet</text><text fill="#000000" font-family="sans-serif" font-size="14" lengthAdjust="spacing" textLength="123.7236" x="299.5" y="591.5918">-int: anioNacimiento</text><line style="stroke:#181818;stroke-width:0.5;" x1="294.5" x2="543.0059" y1="599.1055" y2="599.1055"/><text fill="#000000" font-family="sans-serif" font-size="14" lengthAdjust="spacing" textLength="142.7959" x="299.5" y="618.2129">+ValidarDNI(): boolean</text><text fill="#000000" font-family="sans-serif" font-size="14" lengthAdjust="spacing" textLength="124.1133" x="299.5" y="636.834">+CalcularEdad(): int</text><text fill="#000000" font-family="sans-serif" font-size="14" lengthAdjust="spacing" textLength="238.5059" x="299.5" y="655.4551">+CalcularExperienciaConduccion(): int</text></g><!--class Vehiculo--><g id="elem_Vehiculo"><rect codeLine="13" fill="#F1F1F1" height="234.2109" id="Vehiculo" rx="2.5" ry="2.5" style="stroke:#181818;stroke-width:0.5;" width="162.2129" x="1111" y="153"/><ellipse cx="1161.0049" cy="169" fill="#A9DCDF" rx="11" ry="11" style="stroke:#181818;stroke-width:1.0;"/><path d="M1163.1924,170.7656 L1159.0518,170.7656 L1158.6299,171.7969 L1159.0518,171.7969 Q1159.6611,171.7969 1159.9268,172.0313 Q1160.1924,172.2656 1160.1924,172.6563 Q1160.1924,173.0313 1159.9268,173.2656 Q1159.6611,173.5 1159.0518,173.5 L1156.7549,173.5 Q1156.1455,173.5 1155.8955,173.2656 Q1155.6299,173.0313 1155.6299,172.6406 Q1155.6299,172.2656 1155.9111,172.0313 Q1156.1768,171.7813 1156.8018,171.7969 L1159.4736,165.1406 L1158.3643,165.1406 Q1157.7549,165.1406 1157.4893,164.9063 Q1157.2236,164.6719 1157.2236,164.2813 Q1157.2236,163.9063 1157.4893,163.6719 Q1157.7549,163.4375 1158.3643,163.4375 L1162.0361,163.4375 L1165.4268,171.7969 Q1166.0205,171.7969 1166.208,171.9375 Q1166.5986,172.2031 1166.5986,172.6563 Q1166.5986,173.0313 1166.333,173.2656 Q1166.083,173.5 1165.4736,173.5 L1163.1768,173.5 Q1162.5674,173.5 1162.3018,173.2656 Q1162.0361,173.0313 1162.0361,172.6406 Q1162.0361,172.2656 1162.3018,172.0313 Q1162.5674,171.7969 1163.1768,171.7969 L1163.5986,171.7969 L1163.1924,170.7656 Z M1162.4736,169.0625 L1161.1143,165.6875 L1159.7393,169.0625 L1162.4736,169.0625 Z " fill="#000000"/><text fill="#000000" font-family="sans-serif" font-size="14" font-style="italic" lengthAdjust="spacing" textLength="53.7031" x="1181.5049" y="174.7969">Vehiculo</text><line style="stroke:#181818;stroke-width:0.5;" x1="1112" x2="1272.2129" y1="185" y2="185"/><text fill="#000000" font-family="sans-serif" font-size="14" lengthAdjust="spacing" textLength="105.8066" x="1117" y="204.1074">-String: matricula</text><text fill="#000000" font-family="sans-serif" font-size="14" lengthAdjust="spacing" textLength="87.9102" x="1117" y="222.7285">-String: marca</text><text fill="#000000" font-family="sans-serif" font-size="14" lengthAdjust="spacing" textLength="94.9307" x="1117" y="241.3496">-String: modelo</text><text fill="#000000" font-family="sans-serif" font-size="14" lengthAdjust="spacing" textLength="126.0615" x="1117" y="259.9707">-int: anioFabricacion</text><text fill="#000000" font-family="sans-serif" font-size="14" lengthAdjust="spacing" textLength="94.917" x="1117" y="278.5918">-int: kilometraje</text><text fill="#000000" font-family="sans-serif" font-size="14" lengthAdjust="spacing" textLength="92.6133" x="1117" y="297.2129">-double: precio</text><text fill="#000000" font-family="sans-serif" font-size="14" lengthAdjust="spacing" textLength="150.2129" x="1117" y="315.834">-estadoVehiculo: estado</text><text fill="#000000" font-family="sans-serif" font-size="14" lengthAdjust="spacing" textLength="130.7373" x="1117" y="334.4551">-Persona: propietario</text><line style="stroke:#181818;stroke-width:0.5;" x1="1112" x2="1272.2129" y1="341.9688" y2="341.9688"/><text fill="#000000" font-family="sans-serif" font-size="14" font-style="italic" lengthAdjust="spacing" textLength="116.3203" x="1117" y="361.0762">+CalcularRiesgo():</text><text fill="#000000" font-family="sans-serif" font-size="14" lengthAdjust="spacing" textLength="133.4102" x="1117" y="379.6973">+imprimirDatos():void</text></g><!--class Coche--><g id="elem_Coche"><rect codeLine="31" fill="#F1F1F1" height="122.4844" id="Coche" rx="2.5" ry="2.5" style="stroke:#181818;stroke-width:0.5;" width="229.875" x="580" y="503.5"/><ellipse cx="670.4531" cy="519.5" fill="#ADD1B2" rx="11" ry="11" style="stroke:#181818;stroke-width:1.0;"/><path d="M673.2188,515.375 Q673.375,515.1563 673.5625,515.0469 Q673.75,514.9375 673.9688,514.9375 Q674.3438,514.9375 674.5781,515.2031 Q674.8125,515.4531 674.8125,516.0625 L674.8125,517.5156 Q674.8125,518.125 674.5781,518.3906 Q674.3438,518.6563 673.9688,518.6563 Q673.625,518.6563 673.4219,518.4531 Q673.2188,518.2656 673.1094,517.75 Q673.0625,517.3906 672.875,517.2031 Q672.5469,516.8281 671.9375,516.6094 Q671.3281,516.3906 670.7031,516.3906 Q669.9375,516.3906 669.2969,516.7188 Q668.6719,517.0469 668.1719,517.7969 Q667.6875,518.5469 667.6875,519.5781 L667.6875,520.6719 Q667.6875,521.9063 668.5781,522.7344 Q669.4688,523.5469 671.0625,523.5469 Q672,523.5469 672.6563,523.2969 Q673.0469,523.1406 673.4688,522.7031 Q673.7344,522.4375 673.875,522.3594 Q674.0313,522.2813 674.2344,522.2813 Q674.5625,522.2813 674.8125,522.5469 Q675.0781,522.7969 675.0781,523.1406 Q675.0781,523.4844 674.7344,523.8906 Q674.2344,524.4688 673.4375,524.7969 Q672.3594,525.25 671.0625,525.25 Q669.5469,525.25 668.3438,524.625 Q667.3594,524.125 666.6719,523.0625 Q665.9844,521.9844 665.9844,520.7031 L665.9844,519.5469 Q665.9844,518.2188 666.5938,517.0781 Q667.2188,515.9219 668.3125,515.3125 Q669.4063,514.6875 670.6406,514.6875 Q671.375,514.6875 672.0156,514.8594 Q672.6719,515.0156 673.2188,515.375 Z " fill="#000000"/><text fill="#000000" font-family="sans-serif" font-size="14" lengthAdjust="spacing" textLength="40.4688" x="690.9531" y="525.2969">Coche</text><line style="stroke:#181818;stroke-width:0.5;" x1="581" x2="808.875" y1="535.5" y2="535.5"/><text fill="#000000" font-family="sans-serif" font-size="14" lengthAdjust="spacing" textLength="102.71" x="586" y="554.6074">-int: numPuertas</text><text fill="#000000" font-family="sans-serif" font-size="14" lengthAdjust="spacing" textLength="217.875" x="586" y="573.2285">-TipoCombustible: tipoCombustible</text><text fill="#000000" font-family="sans-serif" font-size="14" lengthAdjust="spacing" textLength="145.5234" x="586" y="591.8496">-int: capacidadMaletero</text><text fill="#000000" font-family="sans-serif" font-size="14" lengthAdjust="spacing" textLength="115.1445" x="586" y="610.4707">-Traccion: traccion</text><line style="stroke:#181818;stroke-width:0.5;" x1="581" x2="808.875" y1="617.9844" y2="617.9844"/></g><!--class Moto--><g id="elem_Moto"><rect codeLine="58" fill="#F1F1F1" height="122.4844" id="Moto" rx="2.5" ry="2.5" style="stroke:#181818;stroke-width:0.5;" width="226.7305" x="897.5" y="503.5"/><ellipse cx="991.0532" cy="519.5" fill="#ADD1B2" rx="11" ry="11" style="stroke:#181818;stroke-width:1.0;"/><path d="M993.8188,515.375 Q993.9751,515.1563 994.1626,515.0469 Q994.3501,514.9375 994.5688,514.9375 Q994.9438,514.9375 995.1782,515.2031 Q995.4126,515.4531 995.4126,516.0625 L995.4126,517.5156 Q995.4126,518.125 995.1782,518.3906 Q994.9438,518.6563 994.5688,518.6563 Q994.2251,518.6563 994.022,518.4531 Q993.8188,518.2656 993.7095,517.75 Q993.6626,517.3906 993.4751,517.2031 Q993.147,516.8281 992.5376,516.6094 Q991.9282,516.3906 991.3032,516.3906 Q990.5376,516.3906 989.897,516.7188 Q989.272,517.0469 988.772,517.7969 Q988.2876,518.5469 988.2876,519.5781 L988.2876,520.6719 Q988.2876,521.9063 989.1782,522.7344 Q990.0688,523.5469 991.6626,523.5469 Q992.6001,523.5469 993.2563,523.2969 Q993.647,523.1406 994.0688,522.7031 Q994.3345,522.4375 994.4751,522.3594 Q994.6313,522.2813 994.8345,522.2813 Q995.1626,522.2813 995.4126,522.5469 Q995.6782,522.7969 995.6782,523.1406 Q995.6782,523.4844 995.3345,523.8906 Q994.8345,524.4688 994.0376,524.7969 Q992.9595,525.25 991.6626,525.25 Q990.147,525.25 988.9438,524.625 Q987.9595,524.125 987.272,523.0625 Q986.5845,521.9844 986.5845,520.7031 L986.5845,519.5469 Q986.5845,518.2188 987.1938,517.0781 Q987.8188,515.9219 988.9126,515.3125 Q990.0063,514.6875 991.2407,514.6875 Q991.9751,514.6875 992.6157,514.8594 Q993.272,515.0156 993.8188,515.375 Z " fill="#000000"/><text fill="#000000" font-family="sans-serif" font-size="14" lengthAdjust="spacing" textLength="31.124" x="1011.5532" y="525.2969">Moto</text><line style="stroke:#181818;stroke-width:0.5;" x1="898.5" x2="1123.2305" y1="535.5" y2="535.5"/><text fill="#000000" font-family="sans-serif" font-size="14" lengthAdjust="spacing" textLength="87.1514" x="903.5" y="554.6074">-int: cilindrada</text><text fill="#000000" font-family="sans-serif" font-size="14" lengthAdjust="spacing" textLength="57.5859" x="903.5" y="573.2285">-int: peso</text><text fill="#000000" font-family="sans-serif" font-size="14" lengthAdjust="spacing" textLength="136.1992" x="903.5" y="591.8496">-double: alturaAsiento</text><text fill="#000000" font-family="sans-serif" font-size="14" lengthAdjust="spacing" textLength="214.7305" x="903.5" y="610.4707">-TipoTransmision: tipoTransmision</text><line style="stroke:#181818;stroke-width:0.5;" x1="898.5" x2="1123.2305" y1="617.9844" y2="617.9844"/></g><!--class Camion--><g id="elem_Camion"><rect codeLine="76" fill="#F1F1F1" height="122.4844" id="Camion" rx="2.5" ry="2.5" style="stroke:#181818;stroke-width:0.5;" width="186.3369" x="1160" y="503.5"/><ellipse cx="1224.7979" cy="519.5" fill="#ADD1B2" rx="11" ry="11" style="stroke:#181818;stroke-width:1.0;"/><path d="M1227.5635,515.375 Q1227.7197,515.1563 1227.9072,515.0469 Q1228.0947,514.9375 1228.3135,514.9375 Q1228.6885,514.9375 1228.9229,515.2031 Q1229.1572,515.4531 1229.1572,516.0625 L1229.1572,517.5156 Q1229.1572,518.125 1228.9229,518.3906 Q1228.6885,518.6563 1228.3135,518.6563 Q1227.9697,518.6563 1227.7666,518.4531 Q1227.5635,518.2656 1227.4541,517.75 Q1227.4072,517.3906 1227.2197,517.2031 Q1226.8916,516.8281 1226.2822,516.6094 Q1225.6729,516.3906 1225.0479,516.3906 Q1224.2822,516.3906 1223.6416,516.7188 Q1223.0166,517.0469 1222.5166,517.7969 Q1222.0322,518.5469 1222.0322,519.5781 L1222.0322,520.6719 Q1222.0322,521.9063 1222.9229,522.7344 Q1223.8135,523.5469 1225.4072,523.5469 Q1226.3447,523.5469 1227.001,523.2969 Q1227.3916,523.1406 1227.8135,522.7031 Q1228.0791,522.4375 1228.2197,522.3594 Q1228.376,522.2813 1228.5791,522.2813 Q1228.9072,522.2813 1229.1572,522.5469 Q1229.4229,522.7969 1229.4229,523.1406 Q1229.4229,523.4844 1229.0791,523.8906 Q1228.5791,524.4688 1227.7822,524.7969 Q1226.7041,525.25 1225.4072,525.25 Q1223.8916,525.25 1222.6885,524.625 Q1221.7041,524.125 1221.0166,523.0625 Q1220.3291,521.9844 1220.3291,520.7031 L1220.3291,519.5469 Q1220.3291,518.2188 1220.9385,517.0781 Q1221.5635,515.9219 1222.6572,515.3125 Q1223.751,514.6875 1224.9854,514.6875 Q1225.7197,514.6875 1226.3604,514.8594 Q1227.0166,515.0156 1227.5635,515.375 Z " fill="#000000"/><text fill="#000000" font-family="sans-serif" font-size="14" lengthAdjust="spacing" textLength="48.2412" x="1245.2979" y="525.2969">Camion</text><line style="stroke:#181818;stroke-width:0.5;" x1="1161" x2="1345.3369" y1="535.5" y2="535.5"/><text fill="#000000" font-family="sans-serif" font-size="14" lengthAdjust="spacing" textLength="156.4404" x="1166" y="554.6074">-double: capacidadCarga</text><text fill="#000000" font-family="sans-serif" font-size="14" lengthAdjust="spacing" textLength="81.6963" x="1166" y="573.2285">-int: numEjes</text><text fill="#000000" font-family="sans-serif" font-size="14" lengthAdjust="spacing" textLength="174.3369" x="1166" y="591.8496">-double: longitudRemolques</text><text fill="#000000" font-family="sans-serif" font-size="14" lengthAdjust="spacing" textLength="115.9443" x="1166" y="610.4707">-int: potenciaMotor</text><line style="stroke:#181818;stroke-width:0.5;" x1="1161" x2="1345.3369" y1="617.9844" y2="617.9844"/></g><!--class Sedan--><g id="elem_Sedan"><rect codeLine="41" fill="#F1F1F1" height="85.2422" id="Sedan" rx="2.5" ry="2.5" style="stroke:#181818;stroke-width:0.5;" width="158.3096" x="7" y="742.5"/><ellipse cx="61.6636" cy="758.5" fill="#ADD1B2" rx="11" ry="11" style="stroke:#181818;stroke-width:1.0;"/><path d="M64.4292,754.375 Q64.5854,754.1563 64.7729,754.0469 Q64.9604,753.9375 65.1792,753.9375 Q65.5542,753.9375 65.7886,754.2031 Q66.0229,754.4531 66.0229,755.0625 L66.0229,756.5156 Q66.0229,757.125 65.7886,757.3906 Q65.5542,757.6563 65.1792,757.6563 Q64.8354,757.6563 64.6323,757.4531 Q64.4292,757.2656 64.3198,756.75 Q64.2729,756.3906 64.0854,756.2031 Q63.7573,755.8281 63.1479,755.6094 Q62.5386,755.3906 61.9136,755.3906 Q61.1479,755.3906 60.5073,755.7188 Q59.8823,756.0469 59.3823,756.7969 Q58.8979,757.5469 58.8979,758.5781 L58.8979,759.6719 Q58.8979,760.9063 59.7886,761.7344 Q60.6792,762.5469 62.2729,762.5469 Q63.2104,762.5469 63.8667,762.2969 Q64.2573,762.1406 64.6792,761.7031 Q64.9448,761.4375 65.0854,761.3594 Q65.2417,761.2813 65.4448,761.2813 Q65.7729,761.2813 66.0229,761.5469 Q66.2886,761.7969 66.2886,762.1406 Q66.2886,762.4844 65.9448,762.8906 Q65.4448,763.4688 64.6479,763.7969 Q63.5698,764.25 62.2729,764.25 Q60.7573,764.25 59.5542,763.625 Q58.5698,763.125 57.8823,762.0625 Q57.1948,760.9844 57.1948,759.7031 L57.1948,758.5469 Q57.1948,757.2188 57.8042,756.0781 Q58.4292,754.9219 59.5229,754.3125 Q60.6167,753.6875 61.8511,753.6875 Q62.5854,753.6875 63.2261,753.8594 Q63.8823,754.0156 64.4292,754.375 Z " fill="#000000"/><text fill="#000000" font-family="sans-serif" font-size="14" lengthAdjust="spacing" textLength="40.4824" x="82.1636" y="764.2969">Sedan</text><line style="stroke:#181818;stroke-width:0.5;" x1="8" x2="164.3096" y1="774.5" y2="774.5"/><text fill="#000000" font-family="sans-serif" font-size="14" lengthAdjust="spacing" textLength="146.3096" x="13" y="793.6074">-double: espacioInterior</text><text fill="#000000" font-family="sans-serif" font-size="14" lengthAdjust="spacing" textLength="132.2686" x="13" y="812.2285">-NivelConfort: confort</text><line style="stroke:#181818;stroke-width:0.5;" x1="8" x2="164.3096" y1="819.7422" y2="819.7422"/></g><!--class SUV--><g id="elem_SUV"><rect codeLine="47" fill="#F1F1F1" height="85.2422" id="SUV" rx="2.5" ry="2.5" style="stroke:#181818;stroke-width:0.5;" width="184.7852" x="200.5" y="742.5"/><ellipse cx="274.2495" cy="758.5" fill="#ADD1B2" rx="11" ry="11" style="stroke:#181818;stroke-width:1.0;"/><path d="M277.0151,754.375 Q277.1714,754.1563 277.3589,754.0469 Q277.5464,753.9375 277.7651,753.9375 Q278.1401,753.9375 278.3745,754.2031 Q278.6089,754.4531 278.6089,755.0625 L278.6089,756.5156 Q278.6089,757.125 278.3745,757.3906 Q278.1401,757.6563 277.7651,757.6563 Q277.4214,757.6563 277.2183,757.4531 Q277.0151,757.2656 276.9058,756.75 Q276.8589,756.3906 276.6714,756.2031 Q276.3433,755.8281 275.7339,755.6094 Q275.1245,755.3906 274.4995,755.3906 Q273.7339,755.3906 273.0933,755.7188 Q272.4683,756.0469 271.9683,756.7969 Q271.4839,757.5469 271.4839,758.5781 L271.4839,759.6719 Q271.4839,760.9063 272.3745,761.7344 Q273.2651,762.5469 274.8589,762.5469 Q275.7964,762.5469 276.4526,762.2969 Q276.8433,762.1406 277.2651,761.7031 Q277.5308,761.4375 277.6714,761.3594 Q277.8276,761.2813 278.0308,761.2813 Q278.3589,761.2813 278.6089,761.5469 Q278.8745,761.7969 278.8745,762.1406 Q278.8745,762.4844 278.5308,762.8906 Q278.0308,763.4688 277.2339,763.7969 Q276.1558,764.25 274.8589,764.25 Q273.3433,764.25 272.1401,763.625 Q271.1558,763.125 270.4683,762.0625 Q269.7808,760.9844 269.7808,759.7031 L269.7808,758.5469 Q269.7808,757.2188 270.3901,756.0781 Q271.0151,754.9219 272.1089,754.3125 Q273.2026,753.6875 274.437,753.6875 Q275.1714,753.6875 275.812,753.8594 Q276.4683,754.0156 277.0151,754.375 Z " fill="#000000"/><text fill="#000000" font-family="sans-serif" font-size="14" lengthAdjust="spacing" textLength="28.7861" x="294.7495" y="764.2969">SUV</text><line style="stroke:#181818;stroke-width:0.5;" x1="201.5" x2="384.2852" y1="774.5" y2="774.5"/><text fill="#000000" font-family="sans-serif" font-size="14" lengthAdjust="spacing" textLength="172.7852" x="206.5" y="793.6074">-boolean: capacidadOffroad</text><text fill="#000000" font-family="sans-serif" font-size="14" lengthAdjust="spacing" textLength="156.4404" x="206.5" y="812.2285">-double: alturaLibreSuelo</text><line style="stroke:#181818;stroke-width:0.5;" x1="201.5" x2="384.2852" y1="819.7422" y2="819.7422"/></g><!--class Deportivo--><g id="elem_Deportivo"><rect codeLine="52" fill="#F1F1F1" height="103.8633" id="Deportivo" rx="2.5" ry="2.5" style="stroke:#181818;stroke-width:0.5;" width="170.7715" x="420.5" y="733"/><ellipse cx="471.6772" cy="749" fill="#ADD1B2" rx="11" ry="11" style="stroke:#181818;stroke-width:1.0;"/><path d="M474.4429,744.875 Q474.5991,744.6563 474.7866,744.5469 Q474.9741,744.4375 475.1929,744.4375 Q475.5679,744.4375 475.8022,744.7031 Q476.0366,744.9531 476.0366,745.5625 L476.0366,747.0156 Q476.0366,747.625 475.8022,747.8906 Q475.5679,748.1563 475.1929,748.1563 Q474.8491,748.1563 474.646,747.9531 Q474.4429,747.7656 474.3335,747.25 Q474.2866,746.8906 474.0991,746.7031 Q473.771,746.3281 473.1616,746.1094 Q472.5522,745.8906 471.9272,745.8906 Q471.1616,745.8906 470.521,746.2188 Q469.896,746.5469 469.396,747.2969 Q468.9116,748.0469 468.9116,749.0781 L468.9116,750.1719 Q468.9116,751.4063 469.8022,752.2344 Q470.6929,753.0469 472.2866,753.0469 Q473.2241,753.0469 473.8804,752.7969 Q474.271,752.6406 474.6929,752.2031 Q474.9585,751.9375 475.0991,751.8594 Q475.2554,751.7813 475.4585,751.7813 Q475.7866,751.7813 476.0366,752.0469 Q476.3022,752.2969 476.3022,752.6406 Q476.3022,752.9844 475.9585,753.3906 Q475.4585,753.9688 474.6616,754.2969 Q473.5835,754.75 472.2866,754.75 Q470.771,754.75 469.5679,754.125 Q468.5835,753.625 467.896,752.5625 Q467.2085,751.4844 467.2085,750.2031 L467.2085,749.0469 Q467.2085,747.7188 467.8179,746.5781 Q468.4429,745.4219 469.5366,744.8125 Q470.6304,744.1875 471.8647,744.1875 Q472.5991,744.1875 473.2397,744.3594 Q473.896,744.5156 474.4429,744.875 Z " fill="#000000"/><text fill="#000000" font-family="sans-serif" font-size="14" lengthAdjust="spacing" textLength="59.917" x="492.1772" y="754.7969">Deportivo</text><line style="stroke:#181818;stroke-width:0.5;" x1="421.5" x2="590.2715" y1="765" y2="765"/><text fill="#000000" font-family="sans-serif" font-size="14" lengthAdjust="spacing" textLength="126.082" x="426.5" y="784.1074">-double: aceleracion</text><text fill="#000000" font-family="sans-serif" font-size="14" lengthAdjust="spacing" textLength="99.6064" x="426.5" y="802.7285">-int: potenciaCV</text><text fill="#000000" font-family="sans-serif" font-size="14" lengthAdjust="spacing" textLength="158.7715" x="426.5" y="821.3496">-boolean: tieneModoPista</text><line style="stroke:#181818;stroke-width:0.5;" x1="421.5" x2="590.2715" y1="828.8633" y2="828.8633"/></g><!--class Scooter--><g id="elem_Scooter"><rect codeLine="67" fill="#F1F1F1" height="66.6211" id="Scooter" rx="2.5" ry="2.5" style="stroke:#181818;stroke-width:0.5;" width="162.1992" x="930" y="751.5"/><ellipse cx="982.7256" cy="767.5" fill="#ADD1B2" rx="11" ry="11" style="stroke:#181818;stroke-width:1.0;"/><path d="M985.4912,763.375 Q985.6475,763.1563 985.835,763.0469 Q986.0225,762.9375 986.2412,762.9375 Q986.6162,762.9375 986.8506,763.2031 Q987.085,763.4531 987.085,764.0625 L987.085,765.5156 Q987.085,766.125 986.8506,766.3906 Q986.6162,766.6563 986.2412,766.6563 Q985.8975,766.6563 985.6943,766.4531 Q985.4912,766.2656 985.3818,765.75 Q985.335,765.3906 985.1475,765.2031 Q984.8193,764.8281 984.21,764.6094 Q983.6006,764.3906 982.9756,764.3906 Q982.21,764.3906 981.5693,764.7188 Q980.9443,765.0469 980.4443,765.7969 Q979.96,766.5469 979.96,767.5781 L979.96,768.6719 Q979.96,769.9063 980.8506,770.7344 Q981.7412,771.5469 983.335,771.5469 Q984.2725,771.5469 984.9287,771.2969 Q985.3193,771.1406 985.7412,770.7031 Q986.0068,770.4375 986.1475,770.3594 Q986.3037,770.2813 986.5068,770.2813 Q986.835,770.2813 987.085,770.5469 Q987.3506,770.7969 987.3506,771.1406 Q987.3506,771.4844 987.0068,771.8906 Q986.5068,772.4688 985.71,772.7969 Q984.6318,773.25 983.335,773.25 Q981.8193,773.25 980.6162,772.625 Q979.6318,772.125 978.9443,771.0625 Q978.2568,769.9844 978.2568,768.7031 L978.2568,767.5469 Q978.2568,766.2188 978.8662,765.0781 Q979.4912,763.9219 980.585,763.3125 Q981.6787,762.6875 982.9131,762.6875 Q983.6475,762.6875 984.2881,762.8594 Q984.9443,763.0156 985.4912,763.375 Z " fill="#000000"/><text fill="#000000" font-family="sans-serif" font-size="14" lengthAdjust="spacing" textLength="48.248" x="1003.2256" y="773.2969">Scooter</text><line style="stroke:#181818;stroke-width:0.5;" x1="931" x2="1091.1992" y1="783.5" y2="783.5"/><text fill="#000000" font-family="sans-serif" font-size="14" lengthAdjust="spacing" textLength="150.1992" x="936" y="802.6074">-int: espacioBajoAsiento</text><line style="stroke:#181818;stroke-width:0.5;" x1="931" x2="1091.1992" y1="810.1211" y2="810.1211"/></g><!--class MotoDeportiva--><g id="elem_MotoDeportiva"><rect codeLine="71" fill="#F1F1F1" height="85.2422" id="MotoDeportiva" rx="2.5" ry="2.5" style="stroke:#181818;stroke-width:0.5;" width="180.875" x="1127.5" y="742.5"/><ellipse cx="1168.5253" cy="758.5" fill="#ADD1B2" rx="11" ry="11" style="stroke:#181818;stroke-width:1.0;"/><path d="M1171.2909,754.375 Q1171.4472,754.1563 1171.6347,754.0469 Q1171.8222,753.9375 1172.0409,753.9375 Q1172.4159,753.9375 1172.6503,754.2031 Q1172.8847,754.4531 1172.8847,755.0625 L1172.8847,756.5156 Q1172.8847,757.125 1172.6503,757.3906 Q1172.4159,757.6563 1172.0409,757.6563 Q1171.6972,757.6563 1171.494,757.4531 Q1171.2909,757.2656 1171.1815,756.75 Q1171.1347,756.3906 1170.9472,756.2031 Q1170.619,755.8281 1170.0097,755.6094 Q1169.4003,755.3906 1168.7753,755.3906 Q1168.0097,755.3906 1167.369,755.7188 Q1166.744,756.0469 1166.244,756.7969 Q1165.7597,757.5469 1165.7597,758.5781 L1165.7597,759.6719 Q1165.7597,760.9063 1166.6503,761.7344 Q1167.5409,762.5469 1169.1347,762.5469 Q1170.0722,762.5469 1170.7284,762.2969 Q1171.119,762.1406 1171.5409,761.7031 Q1171.8065,761.4375 1171.9472,761.3594 Q1172.1034,761.2813 1172.3065,761.2813 Q1172.6347,761.2813 1172.8847,761.5469 Q1173.1503,761.7969 1173.1503,762.1406 Q1173.1503,762.4844 1172.8065,762.8906 Q1172.3065,763.4688 1171.5097,763.7969 Q1170.4315,764.25 1169.1347,764.25 Q1167.619,764.25 1166.4159,763.625 Q1165.4315,763.125 1164.744,762.0625 Q1164.0565,760.9844 1164.0565,759.7031 L1164.0565,758.5469 Q1164.0565,757.2188 1164.6659,756.0781 Q1165.2909,754.9219 1166.3847,754.3125 Q1167.4784,753.6875 1168.7128,753.6875 Q1169.4472,753.6875 1170.0878,753.8594 Q1170.744,754.0156 1171.2909,754.375 Z " fill="#000000"/><text fill="#000000" font-family="sans-serif" font-size="14" lengthAdjust="spacing" textLength="91.041" x="1188.3087" y="764.2969">MotoDeportiva</text><line style="stroke:#181818;stroke-width:0.5;" x1="1128.5" x2="1307.375" y1="774.5" y2="774.5"/><text fill="#000000" font-family="sans-serif" font-size="14" lengthAdjust="spacing" textLength="162.6406" x="1133.5" y="793.6074">-double: velocidadMaxima</text><text fill="#000000" font-family="sans-serif" font-size="14" lengthAdjust="spacing" textLength="168.875" x="1133.5" y="812.2285">-boolean: tieneQuickShifter</text><line style="stroke:#181818;stroke-width:0.5;" x1="1128.5" x2="1307.375" y1="819.7422" y2="819.7422"/></g><!--class NivelDeRiesgo--><g id="elem_NivelDeRiesgo"><rect codeLine="83" fill="#F1F1F1" height="103.8633" id="NivelDeRiesgo" rx="2.5" ry="2.5" style="stroke:#181818;stroke-width:0.5;" width="124.5928" x="1381.5" y="512.5"/><ellipse cx="1396.5" cy="528.5" fill="#EB937F" rx="11" ry="11" style="stroke:#181818;stroke-width:1.0;"/><path d="M1395.3594,529.2969 L1395.3594,531.7969 L1399.6875,531.7969 L1399.6875,530.875 Q1399.6875,530.2656 1399.9219,530 Q1400.1719,529.7344 1400.5469,529.7344 Q1400.9219,529.7344 1401.1563,530 Q1401.3906,530.2656 1401.3906,530.875 L1401.3906,533.5 L1393.3906,533.5 Q1392.7656,533.5 1392.5,533.2656 Q1392.25,533.0313 1392.25,532.6406 Q1392.25,532.2656 1392.5156,532.0313 Q1392.7813,531.7969 1393.3906,531.7969 L1393.6563,531.7969 L1393.6563,525.1406 L1393.3906,525.1406 Q1392.7656,525.1406 1392.5,524.9063 Q1392.25,524.6719 1392.25,524.2813 Q1392.25,523.9063 1392.5,523.6719 Q1392.7656,523.4375 1393.3906,523.4375 L1401.0156,523.4375 L1401.0156,526.0313 Q1401.0156,526.6406 1400.7813,526.9063 Q1400.5625,527.1563 1400.1719,527.1563 Q1399.7969,527.1563 1399.5625,526.9063 Q1399.3281,526.6406 1399.3281,526.0313 L1399.3281,525.1406 L1395.3594,525.1406 L1395.3594,527.5938 L1396.8438,527.5938 Q1396.8438,526.9375 1396.9688,526.75 Q1397.2344,526.3438 1397.7031,526.3438 Q1398.0781,526.3438 1398.3125,526.6094 Q1398.5469,526.8594 1398.5469,527.4688 L1398.5469,529.4375 Q1398.5469,529.9844 1398.4219,530.1719 Q1398.1563,530.5625 1397.7031,530.5625 Q1397.2344,530.5625 1396.9688,530.1563 Q1396.8438,529.9688 1396.8438,529.2969 L1395.3594,529.2969 Z " fill="#000000"/><text fill="#000000" font-family="sans-serif" font-size="14" lengthAdjust="spacing" textLength="92.5928" x="1410.5" y="534.2969">NivelDeRiesgo</text><line style="stroke:#181818;stroke-width:0.5;" x1="1382.5" x2="1505.0928" y1="544.5" y2="544.5"/><text fill="#000000" font-family="sans-serif" font-size="14" lengthAdjust="spacing" textLength="36.5654" x="1387.5" y="563.6074">ALTO</text><text fill="#000000" font-family="sans-serif" font-size="14" lengthAdjust="spacing" textLength="45.8896" x="1387.5" y="582.2285">MEDIO</text><text fill="#000000" font-family="sans-serif" font-size="14" lengthAdjust="spacing" textLength="36.5654" x="1387.5" y="600.8496">BAJO</text><line style="stroke:#181818;stroke-width:0.5;" x1="1382.5" x2="1505.0928" y1="608.3633" y2="608.3633"/></g><!--class estadoVehiculo--><g id="elem_estadoVehiculo"><rect codeLine="90" fill="#F1F1F1" height="85.2422" id="estadoVehiculo" rx="2.5" ry="2.5" style="stroke:#181818;stroke-width:0.5;" width="127.7373" x="1542" y="522"/><ellipse cx="1557" cy="538" fill="#EB937F" rx="11" ry="11" style="stroke:#181818;stroke-width:1.0;"/><path d="M1555.8594,538.7969 L1555.8594,541.2969 L1560.1875,541.2969 L1560.1875,540.375 Q1560.1875,539.7656 1560.4219,539.5 Q1560.6719,539.2344 1561.0469,539.2344 Q1561.4219,539.2344 1561.6563,539.5 Q1561.8906,539.7656 1561.8906,540.375 L1561.8906,543 L1553.8906,543 Q1553.2656,543 1553,542.7656 Q1552.75,542.5313 1552.75,542.1406 Q1552.75,541.7656 1553.0156,541.5313 Q1553.2813,541.2969 1553.8906,541.2969 L1554.1563,541.2969 L1554.1563,534.6406 L1553.8906,534.6406 Q1553.2656,534.6406 1553,534.4063 Q1552.75,534.1719 1552.75,533.7813 Q1552.75,533.4063 1553,533.1719 Q1553.2656,532.9375 1553.8906,532.9375 L1561.5156,532.9375 L1561.5156,535.5313 Q1561.5156,536.1406 1561.2813,536.4063 Q1561.0625,536.6563 1560.6719,536.6563 Q1560.2969,536.6563 1560.0625,536.4063 Q1559.8281,536.1406 1559.8281,535.5313 L1559.8281,534.6406 L1555.8594,534.6406 L1555.8594,537.0938 L1557.3438,537.0938 Q1557.3438,536.4375 1557.4688,536.25 Q1557.7344,535.8438 1558.2031,535.8438 Q1558.5781,535.8438 1558.8125,536.1094 Q1559.0469,536.3594 1559.0469,536.9688 L1559.0469,538.9375 Q1559.0469,539.4844 1558.9219,539.6719 Q1558.6563,540.0625 1558.2031,540.0625 Q1557.7344,540.0625 1557.4688,539.6563 Q1557.3438,539.4688 1557.3438,538.7969 L1555.8594,538.7969 Z " fill="#000000"/><text fill="#000000" font-family="sans-serif" font-size="14" lengthAdjust="spacing" textLength="95.7373" x="1571" y="543.7969">estadoVehiculo</text><line style="stroke:#181818;stroke-width:0.5;" x1="1543" x2="1668.7373" y1="554" y2="554"/><text fill="#000000" font-family="sans-serif" font-size="14" lengthAdjust="spacing" textLength="63.7861" x="1548" y="573.1074">VENDIDO</text><text fill="#000000" font-family="sans-serif" font-size="14" lengthAdjust="spacing" textLength="84.0273" x="1548" y="591.7285">DISPONIBLE</text><line style="stroke:#181818;stroke-width:0.5;" x1="1543" x2="1668.7373" y1="599.2422" y2="599.2422"/></g><!--class TipoCombustible--><g id="elem_TipoCombustible"><rect codeLine="96" fill="#F1F1F1" height="122.4844" id="TipoCombustible" rx="2.5" ry="2.5" style="stroke:#181818;stroke-width:0.5;" width="137.0479" x="626.5" y="724"/><ellipse cx="641.5" cy="740" fill="#EB937F" rx="11" ry="11" style="stroke:#181818;stroke-width:1.0;"/><path d="M640.3594,740.7969 L640.3594,743.2969 L644.6875,743.2969 L644.6875,742.375 Q644.6875,741.7656 644.9219,741.5 Q645.1719,741.2344 645.5469,741.2344 Q645.9219,741.2344 646.1563,741.5 Q646.3906,741.7656 646.3906,742.375 L646.3906,745 L638.3906,745 Q637.7656,745 637.5,744.7656 Q637.25,744.5313 637.25,744.1406 Q637.25,743.7656 637.5156,743.5313 Q637.7813,743.2969 638.3906,743.2969 L638.6563,743.2969 L638.6563,736.6406 L638.3906,736.6406 Q637.7656,736.6406 637.5,736.4063 Q637.25,736.1719 637.25,735.7813 Q637.25,735.4063 637.5,735.1719 Q637.7656,734.9375 638.3906,734.9375 L646.0156,734.9375 L646.0156,737.5313 Q646.0156,738.1406 645.7813,738.4063 Q645.5625,738.6563 645.1719,738.6563 Q644.7969,738.6563 644.5625,738.4063 Q644.3281,738.1406 644.3281,737.5313 L644.3281,736.6406 L640.3594,736.6406 L640.3594,739.0938 L641.8438,739.0938 Q641.8438,738.4375 641.9688,738.25 Q642.2344,737.8438 642.7031,737.8438 Q643.0781,737.8438 643.3125,738.1094 Q643.5469,738.3594 643.5469,738.9688 L643.5469,740.9375 Q643.5469,741.4844 643.4219,741.6719 Q643.1563,742.0625 642.7031,742.0625 Q642.2344,742.0625 641.9688,741.6563 Q641.8438,741.4688 641.8438,740.7969 L640.3594,740.7969 Z " fill="#000000"/><text fill="#000000" font-family="sans-serif" font-size="14" lengthAdjust="spacing" textLength="105.0479" x="655.5" y="745.7969">TipoCombustible</text><line style="stroke:#181818;stroke-width:0.5;" x1="627.5" x2="762.5479" y1="756" y2="756"/><text fill="#000000" font-family="sans-serif" font-size="14" lengthAdjust="spacing" textLength="71.5791" x="632.5" y="775.1074">GASOLINA</text><text fill="#000000" font-family="sans-serif" font-size="14" lengthAdjust="spacing" textLength="49.7998" x="632.5" y="793.7285">DIESEL</text><text fill="#000000" font-family="sans-serif" font-size="14" lengthAdjust="spacing" textLength="58.3379" x="632.5" y="812.3496">H&#205;BRIDO</text><text fill="#000000" font-family="sans-serif" font-size="14" lengthAdjust="spacing" textLength="80.124" x="632.5" y="830.9707">EL&#201;CTRICO</text><line style="stroke:#181818;stroke-width:0.5;" x1="627.5" x2="762.5479" y1="838.4844" y2="838.4844"/></g><!--class Traccion--><g id="elem_Traccion"><rect codeLine="105" fill="#F1F1F1" height="103.8633" id="Traccion" rx="2.5" ry="2.5" style="stroke:#181818;stroke-width:0.5;" width="96.0205" x="799" y="733"/><ellipse cx="818.6521" cy="749" fill="#EB937F" rx="11" ry="11" style="stroke:#181818;stroke-width:1.0;"/><path d="M817.5114,749.7969 L817.5114,752.2969 L821.8396,752.2969 L821.8396,751.375 Q821.8396,750.7656 822.0739,750.5 Q822.3239,750.2344 822.6989,750.2344 Q823.0739,750.2344 823.3083,750.5 Q823.5427,750.7656 823.5427,751.375 L823.5427,754 L815.5427,754 Q814.9177,754 814.6521,753.7656 Q814.4021,753.5313 814.4021,753.1406 Q814.4021,752.7656 814.6677,752.5313 Q814.9333,752.2969 815.5427,752.2969 L815.8083,752.2969 L815.8083,745.6406 L815.5427,745.6406 Q814.9177,745.6406 814.6521,745.4063 Q814.4021,745.1719 814.4021,744.7813 Q814.4021,744.4063 814.6521,744.1719 Q814.9177,743.9375 815.5427,743.9375 L823.1677,743.9375 L823.1677,746.5313 Q823.1677,747.1406 822.9333,747.4063 Q822.7146,747.6563 822.3239,747.6563 Q821.9489,747.6563 821.7146,747.4063 Q821.4802,747.1406 821.4802,746.5313 L821.4802,745.6406 L817.5114,745.6406 L817.5114,748.0938 L818.9958,748.0938 Q818.9958,747.4375 819.1208,747.25 Q819.3864,746.8438 819.8552,746.8438 Q820.2302,746.8438 820.4646,747.1094 Q820.6989,747.3594 820.6989,747.9688 L820.6989,749.9375 Q820.6989,750.4844 820.5739,750.6719 Q820.3083,751.0625 819.8552,751.0625 Q819.3864,751.0625 819.1208,750.6563 Q818.9958,750.4688 818.9958,749.7969 L817.5114,749.7969 Z " fill="#000000"/><text fill="#000000" font-family="sans-serif" font-size="14" lengthAdjust="spacing" textLength="53.6826" x="833.6858" y="754.7969">Traccion</text><line style="stroke:#181818;stroke-width:0.5;" x1="800" x2="894.0205" y1="765" y2="765"/><text fill="#000000" font-family="sans-serif" font-size="14" lengthAdjust="spacing" textLength="84.0205" x="805" y="784.1074">DELANTERA</text><text fill="#000000" font-family="sans-serif" font-size="14" lengthAdjust="spacing" textLength="66.124" x="805" y="802.7285">TRASERA</text><text fill="#000000" font-family="sans-serif" font-size="14" lengthAdjust="spacing" textLength="24.9102" x="805" y="821.3496">4X4</text><line style="stroke:#181818;stroke-width:0.5;" x1="800" x2="894.0205" y1="828.8633" y2="828.8633"/></g><!--class NivelConfort--><g id="elem_NivelConfort"><rect codeLine="112" fill="#F1F1F1" height="103.8633" id="NivelConfort" rx="2.5" ry="2.5" style="stroke:#181818;stroke-width:0.5;" width="109.0273" x="31.5" y="907"/><ellipse cx="46.5" cy="923" fill="#EB937F" rx="11" ry="11" style="stroke:#181818;stroke-width:1.0;"/><path d="M45.3594,923.7969 L45.3594,926.2969 L49.6875,926.2969 L49.6875,925.375 Q49.6875,924.7656 49.9219,924.5 Q50.1719,924.2344 50.5469,924.2344 Q50.9219,924.2344 51.1563,924.5 Q51.3906,924.7656 51.3906,925.375 L51.3906,928 L43.3906,928 Q42.7656,928 42.5,927.7656 Q42.25,927.5313 42.25,927.1406 Q42.25,926.7656 42.5156,926.5313 Q42.7813,926.2969 43.3906,926.2969 L43.6563,926.2969 L43.6563,919.6406 L43.3906,919.6406 Q42.7656,919.6406 42.5,919.4063 Q42.25,919.1719 42.25,918.7813 Q42.25,918.4063 42.5,918.1719 Q42.7656,917.9375 43.3906,917.9375 L51.0156,917.9375 L51.0156,920.5313 Q51.0156,921.1406 50.7813,921.4063 Q50.5625,921.6563 50.1719,921.6563 Q49.7969,921.6563 49.5625,921.4063 Q49.3281,921.1406 49.3281,920.5313 L49.3281,919.6406 L45.3594,919.6406 L45.3594,922.0938 L46.8438,922.0938 Q46.8438,921.4375 46.9688,921.25 Q47.2344,920.8438 47.7031,920.8438 Q48.0781,920.8438 48.3125,921.1094 Q48.5469,921.3594 48.5469,921.9688 L48.5469,923.9375 Q48.5469,924.4844 48.4219,924.6719 Q48.1563,925.0625 47.7031,925.0625 Q47.2344,925.0625 46.9688,924.6563 Q46.8438,924.4688 46.8438,923.7969 L45.3594,923.7969 Z " fill="#000000"/><text fill="#000000" font-family="sans-serif" font-size="14" lengthAdjust="spacing" textLength="77.0273" x="60.5" y="928.7969">NivelConfort</text><line style="stroke:#181818;stroke-width:0.5;" x1="32.5" x2="139.5273" y1="939" y2="939"/><text fill="#000000" font-family="sans-serif" font-size="14" lengthAdjust="spacing" textLength="52.9033" x="37.5" y="958.1074">B&#193;SICO</text><text fill="#000000" font-family="sans-serif" font-size="14" lengthAdjust="spacing" textLength="45.8896" x="37.5" y="976.7285">MEDIO</text><text fill="#000000" font-family="sans-serif" font-size="14" lengthAdjust="spacing" textLength="66.1104" x="37.5" y="995.3496">PREMIUM</text><line style="stroke:#181818;stroke-width:0.5;" x1="32.5" x2="139.5273" y1="1002.8633" y2="1002.8633"/></g><!--class TipoTransmision--><g id="elem_TipoTransmision"><rect codeLine="118" fill="#F1F1F1" height="85.2422" id="TipoTransmision" rx="2.5" ry="2.5" style="stroke:#181818;stroke-width:0.5;" width="135.4756" x="1343.5" y="742.5"/><ellipse cx="1358.5" cy="758.5" fill="#EB937F" rx="11" ry="11" style="stroke:#181818;stroke-width:1.0;"/><path d="M1357.3594,759.2969 L1357.3594,761.7969 L1361.6875,761.7969 L1361.6875,760.875 Q1361.6875,760.2656 1361.9219,760 Q1362.1719,759.7344 1362.5469,759.7344 Q1362.9219,759.7344 1363.1563,760 Q1363.3906,760.2656 1363.3906,760.875 L1363.3906,763.5 L1355.3906,763.5 Q1354.7656,763.5 1354.5,763.2656 Q1354.25,763.0313 1354.25,762.6406 Q1354.25,762.2656 1354.5156,762.0313 Q1354.7813,761.7969 1355.3906,761.7969 L1355.6563,761.7969 L1355.6563,755.1406 L1355.3906,755.1406 Q1354.7656,755.1406 1354.5,754.9063 Q1354.25,754.6719 1354.25,754.2813 Q1354.25,753.9063 1354.5,753.6719 Q1354.7656,753.4375 1355.3906,753.4375 L1363.0156,753.4375 L1363.0156,756.0313 Q1363.0156,756.6406 1362.7813,756.9063 Q1362.5625,757.1563 1362.1719,757.1563 Q1361.7969,757.1563 1361.5625,756.9063 Q1361.3281,756.6406 1361.3281,756.0313 L1361.3281,755.1406 L1357.3594,755.1406 L1357.3594,757.5938 L1358.8438,757.5938 Q1358.8438,756.9375 1358.9688,756.75 Q1359.2344,756.3438 1359.7031,756.3438 Q1360.0781,756.3438 1360.3125,756.6094 Q1360.5469,756.8594 1360.5469,757.4688 L1360.5469,759.4375 Q1360.5469,759.9844 1360.4219,760.1719 Q1360.1563,760.5625 1359.7031,760.5625 Q1359.2344,760.5625 1358.9688,760.1563 Q1358.8438,759.9688 1358.8438,759.2969 L1357.3594,759.2969 Z " fill="#000000"/><text fill="#000000" font-family="sans-serif" font-size="14" lengthAdjust="spacing" textLength="103.4756" x="1372.5" y="764.2969">TipoTransmision</text><line style="stroke:#181818;stroke-width:0.5;" x1="1344.5" x2="1477.9756" y1="774.5" y2="774.5"/><text fill="#000000" font-family="sans-serif" font-size="14" lengthAdjust="spacing" textLength="58.3447" x="1349.5" y="793.6074">MANUAL</text><text fill="#000000" font-family="sans-serif" font-size="14" lengthAdjust="spacing" textLength="91.7793" x="1349.5" y="812.2285">AUTOM&#193;TICA</text><line style="stroke:#181818;stroke-width:0.5;" x1="1344.5" x2="1477.9756" y1="819.7422" y2="819.7422"/></g><!--class Valorable--><g id="elem_Valorable"><rect codeLine="125" fill="#F1F1F1" height="66.6211" id="Valorable" rx="2.5" ry="2.5" style="stroke:#181818;stroke-width:0.5;" width="209.2715" x="1087.5" y="7"/><ellipse cx="1158.3101" cy="23" fill="#B4A7E5" rx="11" ry="11" style="stroke:#181818;stroke-width:1.0;"/><path d="M1159.2632,19.6406 L1159.2632,26.2969 L1160.9819,26.2969 Q1161.5913,26.2969 1161.8569,26.5313 Q1162.1226,26.7656 1162.1226,27.1563 Q1162.1226,27.5313 1161.8569,27.7656 Q1161.5913,28 1160.9819,28 L1155.8413,28 Q1155.2319,28 1154.9663,27.7656 Q1154.7007,27.5313 1154.7007,27.1406 Q1154.7007,26.7656 1154.9663,26.5313 Q1155.2319,26.2969 1155.8413,26.2969 L1157.5601,26.2969 L1157.5601,19.6406 L1155.8413,19.6406 Q1155.2319,19.6406 1154.9663,19.4063 Q1154.7007,19.1719 1154.7007,18.7813 Q1154.7007,18.4063 1154.9663,18.1719 Q1155.2319,17.9375 1155.8413,17.9375 L1160.9819,17.9375 Q1161.5913,17.9375 1161.8569,18.1719 Q1162.1226,18.4063 1162.1226,18.7813 Q1162.1226,19.1719 1161.8569,19.4063 Q1161.5913,19.6406 1160.9819,19.6406 L1159.2632,19.6406 Z " fill="#000000"/><text fill="#000000" font-family="sans-serif" font-size="14" font-style="italic" lengthAdjust="spacing" textLength="59.1514" x="1178.8101" y="28.7969">Valorable</text><line style="stroke:#181818;stroke-width:0.5;" x1="1088.5" x2="1295.7715" y1="39" y2="39"/><line style="stroke:#181818;stroke-width:0.5;" x1="1088.5" x2="1295.7715" y1="47" y2="47"/><text fill="#000000" font-family="sans-serif" font-size="14" font-style="italic" lengthAdjust="spacing" textLength="197.2715" x="1093.5" y="66.1074">+calcularDepreciacion(): double</text></g><!--reverse link Vehiculo to Coche--><g id="link_Vehiculo_Coche"><path codeLine="26" d="M1095.247,327.9395 C1009.657,378.3095 890.16,448.64 797.34,503.27 " fill="none" id="Vehiculo-backto-Coche" style="stroke:#181818;stroke-width:1.0;"/><polygon fill="none" points="1110.76,318.81,1092.2039,322.7685,1098.2902,333.1105,1110.76,318.81" style="stroke:#181818;stroke-width:1.0;"/><text fill="#000000" font-family="sans-serif" font-size="13" lengthAdjust="spacing" textLength="60.709" x="945" y="432.0283">Hereda de</text><text fill="#000000" font-family="sans-serif" font-size="13" lengthAdjust="spacing" textLength="7.23" x="1095.684" y="319.6842">1</text><text fill="#000000" font-family="sans-serif" font-size="13" lengthAdjust="spacing" textLength="7.23" x="801.7889" y="492.2246">1</text></g><!--reverse link Vehiculo to Moto--><g id="link_Vehiculo_Moto"><path codeLine="27" d="M1110.7305,402.3278 C1086.0605,442.2078 1068.91,469.91 1048.14,503.48 " fill="none" id="Vehiculo-backto-Moto" style="stroke:#181818;stroke-width:1.0;"/><polygon fill="none" points="1120.2,387.02,1105.6279,399.1713,1115.8331,405.4843,1120.2,387.02" style="stroke:#181818;stroke-width:1.0;"/><text fill="#000000" font-family="sans-serif" font-size="13" lengthAdjust="spacing" textLength="60.709" x="1103" y="432.0283">Hereda de</text><text fill="#000000" font-family="sans-serif" font-size="13" lengthAdjust="spacing" textLength="7.23" x="1108.3766" y="409.092">1</text><text fill="#000000" font-family="sans-serif" font-size="13" lengthAdjust="spacing" textLength="7.23" x="1045.2703" y="492.0238">1</text></g><!--reverse link Vehiculo to Camion--><g id="link_Vehiculo_Camion"><path codeLine="28" d="M1219.8719,404.6415 C1228.1819,444.5215 1233.48,469.91 1240.48,503.48 " fill="none" id="Vehiculo-backto-Camion" style="stroke:#181818;stroke-width:1.0;"/><polygon fill="none" points="1216.2,387.02,1213.998,405.8655,1225.7457,403.4175,1216.2,387.02" style="stroke:#181818;stroke-width:1.0;"/><text fill="#000000" font-family="sans-serif" font-size="13" lengthAdjust="spacing" textLength="60.709" x="1228" y="432.0283">Hereda de</text><text fill="#000000" font-family="sans-serif" font-size="13" lengthAdjust="spacing" textLength="7.23" x="1210.5266" y="409.092">1</text><text fill="#000000" font-family="sans-serif" font-size="13" lengthAdjust="spacing" textLength="7.23" x="1231.521" y="492.0238">1</text></g><!--reverse link Vehiculo to Persona--><g id="link_Vehiculo_Persona"><path codeLine="29" d="M1099.0884,290.555 C976.2384,317.985 749.31,375.68 562,466 C556.32,468.74 550.6,471.69 544.9,474.79 " fill="none" id="Vehiculo-backto-Persona" style="stroke:#181818;stroke-width:1.0;"/><polygon fill="#181818" points="1110.8,287.94,1104.0725,285.3436,1099.0884,290.555,1105.8159,293.1514,1110.8,287.94" style="stroke:#181818;stroke-width:1.0;"/><text fill="#000000" font-family="sans-serif" font-size="13" lengthAdjust="spacing" textLength="61.4263" x="662" y="432.0283">propietario</text><text fill="#000000" font-family="sans-serif" font-size="13" lengthAdjust="spacing" textLength="7.23" x="1095.7278" y="285.8719">1</text><text fill="#000000" font-family="sans-serif" font-size="13" lengthAdjust="spacing" textLength="21.6836" x="551.9635" y="466.7627">0..1</text></g><!--reverse link Coche to Sedan--><g id="link_Coche_Sedan"><path codeLine="37" d="M611.4256,636.1984 C591.8656,650.4884 584.32,653.67 562,663 C404.6,728.82 342.87,664.41 183,724 C170.2,728.77 157.25,735.33 145.16,742.37 " fill="none" id="Coche-backto-Sedan" style="stroke:#181818;stroke-width:1.0;"/><polygon fill="none" points="625.96,625.58,607.8861,631.3536,614.9651,641.0432,625.96,625.58" style="stroke:#181818;stroke-width:1.0;"/><text fill="#000000" font-family="sans-serif" font-size="13" lengthAdjust="spacing" textLength="7.23" x="617.9939" y="648.0766">1</text><text fill="#000000" font-family="sans-serif" font-size="13" lengthAdjust="spacing" textLength="7.23" x="147.0245" y="731.2534">1</text></g><!--reverse link Coche to SUV--><g id="link_Coche_SUV"><path codeLine="38" d="M605.7086,636.13 C587.2686,649.45 581.73,652.24 562,663 C495.56,699.25 471.71,692.25 403,724 C390.86,729.61 378.2,735.99 365.97,742.44 " fill="none" id="Coche-backto-SUV" style="stroke:#181818;stroke-width:1.0;"/><polygon fill="none" points="620.3,625.59,602.1953,631.2662,609.2219,640.9938,620.3,625.59" style="stroke:#181818;stroke-width:1.0;"/><text fill="#000000" font-family="sans-serif" font-size="13" lengthAdjust="spacing" textLength="7.23" x="603.791" y="648.0878">1</text><text fill="#000000" font-family="sans-serif" font-size="13" lengthAdjust="spacing" textLength="7.23" x="370.0772" y="731.3345">1</text></g><!--reverse link Coche to Deportivo--><g id="link_Coche_Deportivo"><path codeLine="39" d="M631.0771,639.3962 C602.0171,673.0062 577.99,700.78 550.29,732.8 " fill="none" id="Coche-backto-Deportivo" style="stroke:#181818;stroke-width:1.0;"/><polygon fill="none" points="642.85,625.78,626.5384,635.4719,635.6159,643.3204,642.85,625.78" style="stroke:#181818;stroke-width:1.0;"/><text fill="#000000" font-family="sans-serif" font-size="13" lengthAdjust="spacing" textLength="7.23" x="629.436" y="647.8655">1</text><text fill="#000000" font-family="sans-serif" font-size="13" lengthAdjust="spacing" textLength="7.23" x="548.802" y="721.7005">1</text></g><!--reverse link Moto to Scooter--><g id="link_Moto_Scooter"><path codeLine="64" d="M1011,643.78 C1011,684.33 1011,718.23 1011,751.3 " fill="none" id="Moto-backto-Scooter" style="stroke:#181818;stroke-width:1.0;"/><polygon fill="none" points="1011,625.78,1005,643.78,1017,643.78,1011,625.78" style="stroke:#181818;stroke-width:1.0;"/><text fill="#000000" font-family="sans-serif" font-size="13" lengthAdjust="spacing" textLength="7.23" x="1003.6242" y="647.8655">1</text><text fill="#000000" font-family="sans-serif" font-size="13" lengthAdjust="spacing" textLength="7.23" x="1003.3357" y="740.3478">1</text></g><!--reverse link Moto to MotoDeportiva--><g id="link_Moto_MotoDeportiva"><path codeLine="65" d="M1080.4872,638.8492 C1115.5472,675.8692 1147.19,709.26 1178.44,742.24 " fill="none" id="Moto-backto-MotoDeportiva" style="stroke:#181818;stroke-width:1.0;"/><polygon fill="none" points="1068.11,625.78,1076.1309,642.9749,1084.8436,634.7234,1068.11,625.78" style="stroke:#181818;stroke-width:1.0;"/><text fill="#000000" font-family="sans-serif" font-size="13" lengthAdjust="spacing" textLength="7.23" x="1067.3375" y="647.8655">1</text><text fill="#000000" font-family="sans-serif" font-size="13" lengthAdjust="spacing" textLength="7.23" x="1164.6056" y="731.1026">1</text></g><!--reverse link Vehiculo to NivelDeRiesgo--><g id="link_Vehiculo_NivelDeRiesgo"><path codeLine="88" d="M1281.3248,371.8209 C1309.8548,404.2609 1334.06,432.1 1363,466 C1375.79,480.98 1389.53,497.4 1402.01,512.43 " fill="none" id="Vehiculo-backto-NivelDeRiesgo" style="stroke:#181818;stroke-width:1.0;"/><polygon fill="#181818" points="1273.4,362.81,1274.3588,369.9571,1281.3248,371.8209,1280.3661,364.6739,1273.4,362.81" style="stroke:#181818;stroke-width:1.0;"/><text fill="#000000" font-family="sans-serif" font-size="13" lengthAdjust="spacing" textLength="7.23" x="1281.2275" y="367.6143">1</text><text fill="#000000" font-family="sans-serif" font-size="13" lengthAdjust="spacing" textLength="7.23" x="1388.9401" y="501.348">1</text></g><!--reverse link Vehiculo to estadoVehiculo--><g id="link_Vehiculo_estadoVehiculo"><path codeLine="94" d="M1283.8256,314.1115 C1354.2956,349.1415 1446.25,400.34 1524,466 C1543.26,482.27 1561.63,503.38 1576.08,521.8 " fill="none" id="Vehiculo-backto-estadoVehiculo" style="stroke:#181818;stroke-width:1.0;"/><polygon fill="#181818" points="1273.08,308.77,1276.6723,315.0226,1283.8256,314.1115,1280.2333,307.8589,1273.08,308.77" style="stroke:#181818;stroke-width:1.0;"/><text fill="#000000" font-family="sans-serif" font-size="13" lengthAdjust="spacing" textLength="7.23" x="1281.1423" y="308.6872">1</text><text fill="#000000" font-family="sans-serif" font-size="13" lengthAdjust="spacing" textLength="7.23" x="1563.7929" y="510.6722">1</text></g><!--reverse link Coche to TipoCombustible--><g id="link_Coche_TipoCombustible"><path codeLine="102" d="M695,637.78 C695,668.35 695,693.37 695,723.91 " fill="none" id="Coche-backto-TipoCombustible" style="stroke:#181818;stroke-width:1.0;"/><polygon fill="none" points="695,625.78,691,631.78,695,637.78,699,631.78,695,625.78" style="stroke:#181818;stroke-width:1.0;"/><text fill="#000000" font-family="sans-serif" font-size="13" lengthAdjust="spacing" textLength="7.23" x="687.6158" y="647.8655">1</text><text fill="#000000" font-family="sans-serif" font-size="13" lengthAdjust="spacing" textLength="7.23" x="687.6058" y="712.8808">1</text></g><!--reverse link Coche to Traccion--><g id="link_Coche_Traccion"><path codeLine="110" d="M743.7906,635.6324 C767.1606,669.2424 789.11,700.78 811.38,732.8 " fill="none" id="Coche-backto-Traccion" style="stroke:#181818;stroke-width:1.0;"/><polygon fill="#181818" points="736.94,625.78,737.0812,632.9897,743.7906,635.6324,743.6494,628.4226,736.94,625.78" style="stroke:#181818;stroke-width:1.0;"/><text fill="#000000" font-family="sans-serif" font-size="13" lengthAdjust="spacing" textLength="7.23" x="734.4051" y="647.8655">1</text><text fill="#000000" font-family="sans-serif" font-size="13" lengthAdjust="spacing" textLength="7.23" x="799.1373" y="721.7005">1</text></g><!--reverse link Sedan to NivelConfort--><g id="link_Sedan_NivelConfort"><path codeLine="117" d="M86,839.64 C86,863.5 86,881.63 86,906.92 " fill="none" id="Sedan-backto-NivelConfort" style="stroke:#181818;stroke-width:1.0;"/><polygon fill="#181818" points="86,827.64,82,833.64,86,839.64,90,833.64,86,827.64" style="stroke:#181818;stroke-width:1.0;"/><text fill="#000000" font-family="sans-serif" font-size="13" lengthAdjust="spacing" textLength="7.23" x="78.4358" y="849.8226">1</text><text fill="#000000" font-family="sans-serif" font-size="13" lengthAdjust="spacing" textLength="7.23" x="78.5433" y="895.8366">1</text></g><!--reverse link Moto to TipoTransmision--><g id="link_Moto_TipoTransmision"><path codeLine="122" d="M1092.7644,632.6398 C1111.2144,646.1798 1121.88,652.53 1142,663 C1218.42,702.78 1249.09,685.18 1326,724 C1336.48,729.29 1347.12,735.76 1357.16,742.47 " fill="none" id="Moto-backto-TipoTransmision" style="stroke:#181818;stroke-width:1.0;"/><polygon fill="none" points="1083.09,625.54,1085.5606,632.3147,1092.7644,632.6398,1090.2938,625.8651,1083.09,625.54" style="stroke:#181818;stroke-width:1.0;"/><text fill="#000000" font-family="sans-serif" font-size="13" lengthAdjust="spacing" textLength="7.23" x="1084.4798" y="648.0317">1</text><text fill="#000000" font-family="sans-serif" font-size="13" lengthAdjust="spacing" textLength="7.23" x="1341.0019" y="731.3693">1</text></g><!--reverse link Valorable to Vehiculo--><g id="link_Valorable_Vehiculo"><path codeLine="128" d="M1192,92.1 C1192,113.1 1192,123.82 1192,152.75 " fill="none" id="Valorable-backto-Vehiculo" style="stroke:#181818;stroke-width:1.0;stroke-dasharray:7.0,7.0;"/><polygon fill="none" points="1192,74.1,1186,92.1,1198,92.1,1192,74.1" style="stroke:#181818;stroke-width:1.0;"/><text fill="#000000" font-family="sans-serif" font-size="13" lengthAdjust="spacing" textLength="67.9199" x="1193" y="119.0283">Implementa</text></g><!--SRC=[XLNDRjmu3BxxAOoUjbqaw08z1RruRE_MnVpjU6QmLuxDIPJ8fbUMWsBR77hieK-L5ojbIOxj9DYv34rI7ycFf1IsTw9kG44L5XBQDj9QYLEdCIkepiL_6BuF0ciAjwXQgY7y6eJykmXpTgslhyAQgfF2cH8Qb5AKrCxqoJfpcYKL81FGU1MUiRY16Cgk42MKCQWQjVCIjMQmMj0Q2b49h3Nrbj-FmF2W6E-tjrVXYKWYrDOKWomw2IfbC6DaZ9dXIuEAiGe1CTKSjX1K3vuF0PnQhQ3Ghl0ZtWW-HxRofregOC40pjMgcAkeH4d1jA8_uSJ7mSGUMUw4f0ev_2rQRKdTIJ99ZK9sjJfiDPJayxfotzRcscGEK2DGW-9Jjlwllh07pyHEO7jDNBfr45MZc6N5RQ6MjVSaok0X60XuyyURyEEtYujUYAcuuRm-eS8ImX9VSLkHfl_tYg5Y7bxrUsVStbzUikZ7S5QWRLMVa-zJpsVTLTiEbORMAlUYePWdjckrw7dLKyNeQ04Dz1Ev0eaQbIDupmmMVRBQIKnH7zXNPFvpBgD-GNquFbScs93Iudueep_io_03WAr9XxAQKn6ah74jxb7o49yPW3Es0kSp81sE7iVjoAYkpVci2Cff692wKx0KlDDvPwRsmMCDQSupWm8bglaaDwJjYXrdyJMl7gwefAtWkNt2DvCoRbqXfAXB1IMCKR6bbnAEsk5oi4tcDjLj9LhRgQc2OvfWayOKnFcgPthpxGk7WLNhF4xMTMS1j-HJcHGsOCp9u_wHcx8leeANkFgx4yLTVYFE9i41rQxC76veBb-Zrp1TXFGMswctfFfQwAxSOKNotywR9_qpsVTXaI7im2LeBmxt5aJB_QONLccIMMaHVTxCRuvtRjSd40vsUgCnxZ5T9rco2P8itsxMsMAPlWOtFUhmPclk4lqhoZVBR1tr7qcMvkco5pyz_bpiJ3JpaIuVVyJxNHPl_5xtOSY5co47Fg2x2roa95r6wtswiw7skoZtyeT_FanmVHaUOCopMso7kNZydfkifanlT-agEwmOqzuQpvXs84-yZ1R18Q-YzI6oL4I7_MRr-7sVnP7Rad7ri-DSl33NqPblW91VP59WoHuzDJoHzgtX3J1F6FZ7riwWwUfmyEEtoylmwLdBgaPYnRi4lm00]--></g></svg>